<svg xmlns="http://www.w3.org/2000/svg" xmlns:xlink="http://www.w3.org/1999/xlink" width="563" height="177" viewBox="0 0 563 177"><defs><filter id="a" x="404" y="42" width="159" height="85" filterUnits="userSpaceOnUse"><feOffset dx="3" dy="3" input="SourceAlpha"/><feGaussianBlur stdDeviation="1" result="b"/><feFlood flood-opacity="0.259"/><feComposite operator="in" in2="b"/><feComposite in="SourceGraphic"/></filter><filter id="c" x="0" y="42" width="184" height="85" filterUnits="userSpaceOnUse"><feOffset dx="3" dy="3" input="SourceAlpha"/><feGaussianBlur stdDeviation="1" result="d"/><feFlood flood-opacity="0.259"/><feComposite operator="in" in2="d"/><feComposite in="SourceGraphic"/></filter></defs><g transform="translate(-92 -33)"><g transform="translate(292 33)"><circle cx="78.5" cy="78.5" r="78.5" transform="translate(10 10)" fill="#fff"/><path d="M88.5,11A77.5,77.5,0,1,1,11,88.5,77.5,77.5,0,0,1,88.5,11m0-2A79.5,79.5,0,1,0,168,88.5,79.5,79.5,0,0,0,88.5,9Z" fill="#4f2c28"/><text transform="translate(57.6 42.79) rotate(-22.02)" fill="#4f2c28" font-size="25" font-family="Leelawadee"><tspan x="0" y="0">D</tspan></text><text transform="translate(75.37 36.37) rotate(-7.91)" fill="#4f2c28" font-size="25" font-family="Leelawadee"><tspan x="0" y="0">r</tspan></text><text transform="matrix(1, 0.017, -0.017, 1, 85.75, 35.16)" fill="#4f2c28" font-size="25" font-family="Leelawadee"><tspan x="0" y="0">i</tspan></text><text transform="translate(93.74 35.19) rotate(11.535)" fill="#4f2c28" font-size="25" font-family="Leelawadee"><tspan x="0" y="0">v</tspan></text><text transform="translate(106.77 37.92) rotate(24.88)" fill="#4f2c28" font-size="25" font-family="Leelawadee"><tspan x="0" y="0">e</tspan></text><text transform="translate(55.22 145.98) rotate(26.24)" fill="#4f2c28" font-size="25" font-family="Leelawadee"><tspan x="0" y="0">C</tspan></text><text transform="matrix(0.994, 0.106, -0.106, 0.994, 75.12, 154.41)" fill="#4f2c28" font-size="25" font-family="Leelawadee"><tspan x="0" y="0">a</tspan></text><text transform="translate(93.6 155.58) rotate(-11.13)" fill="#4f2c28" font-size="25" font-family="Leelawadee"><tspan x="0" y="0">k</tspan></text><text transform="translate(110.74 151.44) rotate(-28.49)" fill="#4f2c28" font-size="25" font-family="Leelawadee"><tspan x="0" y="0">e</tspan></text><path d="M106.73,79.14a29.76,29.76,0,1,0,9.81,20.56,29.76,29.76,0,0,0-9.81-20.56Zm.73,40.71a27.78,27.78,0,1,1,7.1-20,27.78,27.78,0,0,1-7.1,20Z" fill="#4f2c28"/><path d="M85.56,77.48a26.419,26.419,0,0,1,2.67,0,1,1,0,0,0,.11-2,25.162,25.162,0,0,0-2.88,0,25.54,25.54,0,0,0-15.2,6A1,1,0,1,0,71.54,83a23.54,23.54,0,0,1,14.02-5.52Z" fill="#4f2c28"/><path d="M103.49,119.65a1,1,0,0,0-1.4-.12,23.57,23.57,0,0,1-14,5.51,24.13,24.13,0,0,1-5.37-.33.991.991,0,0,0-.62,1.86.76.76,0,0,0,.28.09,25.76,25.76,0,0,0,21-5.61,1,1,0,0,0,.12-1.4Z" fill="#4f2c28"/><path d="M90.7,119.68h.09a18.9,18.9,0,0,0,13.87-12.51h0a18.54,18.54,0,0,0-.65-13.41.32.32,0,0,0,0-.09h0a18.91,18.91,0,0,0-15.19-11h0a17.36,17.36,0,0,0-5.84.3h-.14a18.88,18.88,0,0,0-13.91,12.4h0A18.74,18.74,0,0,0,90.7,119.68Zm-2.48-12.54h-.09l-1,.06-2,.1a1,1,0,0,0-.77.45,7,7,0,0,1-1.69-.93,2,2,0,0,0-.29-1.43l-1.16-1.79a2,2,0,0,0-1.2-.84,6.3,6.3,0,0,1-.12-2.29,1.91,1.91,0,0,0,1.1-1l1-1.91a1.92,1.92,0,0,0,.13-1.45,6.91,6.91,0,0,1,1.59-1.09.92.92,0,0,0,.8.36h.98l1-.06,2-.1a1,1,0,0,0,.76-.45,7,7,0,0,1,1.69.93,2,2,0,0,0,.29,1.43l1.16,1.79a2,2,0,0,0,1.2.84,7.47,7.47,0,0,1,.17,1.14,7.25,7.25,0,0,1-.05,1.14,2,2,0,0,0-1.1,1l-1,1.92a2,2,0,0,0-.14,1.45,6.68,6.68,0,0,1-1.58,1.1,1,1,0,0,0-.8-.37l-.84.05Zm-16.33,1.67,7.69-4.13,1.16,1.8-6.89,5.34Zm.83-16.76,7.51,4.65-1,1.91-8.19-3.34a16.91,16.91,0,0,1,1.66-3.22Zm29.14,1.59-7.81,4.19L92.88,96l7-5.42a16.72,16.72,0,0,1,2,3Zm-1,16.83-7.51-4.65,1-1.92,8.19,3.35a16.31,16.31,0,0,1-1.65,3.22Zm-9.47,7-1.1-8a8.78,8.78,0,0,0,2.51-1.62l6.88,4.26a16.94,16.94,0,0,1-8.24,5.36Zm12.22-17.09a16.74,16.74,0,0,1-.49,5l-7.5-3.07a9.311,9.311,0,0,0,.07-1.5,9.42,9.42,0,0,0-.23-1.49l7.14-3.82a16.71,16.71,0,0,1,1,4.9ZM94.45,86.22a17.17,17.17,0,0,1,4.09,2.93l-6.41,5a8.84,8.84,0,0,0-2.66-1.37l.25-8.1a16.79,16.79,0,0,1,4.73,1.54Zm-8.51-1.8a15.44,15.44,0,0,1,1.8,0l-.28,8.85-1.09.06h-1l-1.21-8.78a15.64,15.64,0,0,1,1.81-.19Zm-3.75.63,1.09,8a8.78,8.78,0,0,0-2.51,1.62L73.9,90.44a16.9,16.9,0,0,1,8.29-5.39ZM70,102.14a16.71,16.71,0,0,1,.49-5l7.5,3.06a9.41,9.41,0,0,0-.06,1.5,8.372,8.372,0,0,0,.22,1.49L71,107a16.71,16.71,0,0,1-1-4.86Zm5.13,11.22,6.39-5a7.83,7.83,0,0,0,2.67,1.37l-.25,8.09a16.8,16.8,0,0,1-8.81-4.5Zm10.79,4.74.28-8.86,1.1-.06,1-.05,1.2,8.78a16.14,16.14,0,0,1-3.61.19Z" fill="#4f2c28"/><path d="M89.47,98.31a4,4,0,1,0,1.31,2.74A4,4,0,0,0,89.47,98.31Zm-1.17,4.28a2,2,0,1,1-.58-3.1,1.84,1.84,0,0,1,.43.3,2,2,0,0,1,.14,2.8Z" fill="#4f2c28"/><path d="M92.32,77.34a1.1,1.1,0,1,1-.43-1.33A1,1,0,0,1,92.32,77.34Z" fill="#4f2c28"/><rect width="62.35" height="57.6" transform="translate(56.37 43.86)" fill="#fff"/><path d="M111.42,85.24A3.48,3.48,0,0,0,113.55,82V72.7a3.4,3.4,0,0,0-3.29-3.49h-5.43v-8.1a2.34,2.34,0,0,0-.63-1.6c.82-1,1.43-2.61.32-5.25a18,18,0,0,0-2.85-4.41,1.18,1.18,0,0,0-1.65-.12l-.11.12c-3.49,4-4.39,7.44-2.56,9.64a2.33,2.33,0,0,0-.65,1.62v8.1H90.88V57.61a2.3,2.3,0,0,0-.63-1.6c.82-1,1.42-2.62.32-5.26a17.76,17.76,0,0,0-2.86-4.41,1.17,1.17,0,0,0-1.64-.12l-.12.12c-3.49,4-4.38,7.45-2.55,9.64a2.36,2.36,0,0,0-.66,1.63V69.2H76.93V61.1a2.3,2.3,0,0,0-.63-1.6c.82-1,1.42-2.62.32-5.26a17.76,17.76,0,0,0-2.86-4.41,1.17,1.17,0,0,0-1.64-.12l-.12.12c-3.49,4.05-4.38,7.45-2.55,9.64a2.36,2.36,0,0,0-.66,1.63v8.1H63.37a3.39,3.39,0,0,0-3.3,3.48V82a3.49,3.49,0,0,0,2.13,3.26v10.7a3.81,3.81,0,0,0,.19,1.16h-.81a1.17,1.17,0,0,0,0,2.33h50.47a1.17,1.17,0,0,0,0-2.33h-.82a3.53,3.53,0,0,0,.19-1.16Zm-10.64-32.8c1.4,1.9,2.75,4.48,1.54,5.67a2.18,2.18,0,0,1-1.53.61h0a2.11,2.11,0,0,1-1.51-.61c-1.34-1.33.28-4,1.52-5.66ZM99,61.09h3.41v8.1H99v-8.1ZM86.83,49c1.4,1.9,2.74,4.48,1.54,5.67a2.14,2.14,0,0,1-1.53.61h0a2.12,2.12,0,0,1-1.51-.6C84,53.3,85.58,50.62,86.83,49Zm1.73,8.65V69.2H85.07V57.61h3.41s.07-.02.08,0Zm-15.69-5.2c1.4,1.9,2.75,4.48,1.54,5.66a2.15,2.15,0,0,1-1.53.62h0a2.11,2.11,0,0,1-1.51-.61C70,56.78,71.63,54.11,72.87,52.45ZM71.11,61.1h3.41v8.1h-3.4V61.1Zm38,25.11h-3.6a1.17,1.17,0,1,0-.07,2.33h3.68v7.4a1.1,1.1,0,0,1-1,1.16H65.5a1.09,1.09,0,0,1-1-1.16V95h3.61a1.16,1.16,0,1,0,.06-2.32H64.53V85.24A3.48,3.48,0,0,0,66.66,82V78.52a1.221,1.221,0,1,1,2.41-.4,1.34,1.34,0,0,1,0,.4v4.77a3.54,3.54,0,0,0,7.06.42,2.939,2.939,0,0,0,0-.42V78.53a1.221,1.221,0,0,1,2.41-.4.9.9,0,0,1,0,.4v.3a3.541,3.541,0,1,0,7.07.41v-.71a1.221,1.221,0,1,1,2.41-.4,1.34,1.34,0,0,1,0,.4V81a3.54,3.54,0,0,0,7.06.42,2.939,2.939,0,0,0,0-.42V78.53a1.221,1.221,0,1,1,2.41-.4,1.34,1.34,0,0,1,0,.4v.3a3.54,3.54,0,0,0,7.06.41,2.8,2.8,0,0,0,0-.41v-.3a1.221,1.221,0,1,1,2.41-.4.9.9,0,0,1,0,.4V82a3.5,3.5,0,0,0,2.14,3.25ZM111.22,82a1,1,0,0,1-1.93.35.69.69,0,0,1,0-.35V78.53a3.541,3.541,0,1,0-7.07-.42v.72a1.221,1.221,0,0,1-2.41.4,1.34,1.34,0,0,1,0-.4v-.3a3.54,3.54,0,1,0-7.06-.42,2.94,2.94,0,0,0,0,.42V81a1.221,1.221,0,1,1-2.41.4,1.34,1.34,0,0,1,0-.4V78.53a3.54,3.54,0,1,0-7.06-.42,2.94,2.94,0,0,0,0,.42v.3a1.221,1.221,0,0,1-2.41.4,1.34,1.34,0,0,1,0-.4v-.3a3.54,3.54,0,0,0-7.06-.42,2.94,2.94,0,0,0,0,.42V83.3a1.23,1.23,0,0,1-2.42.4,1.34,1.34,0,0,1,0-.4V78.53a3.54,3.54,0,1,0-7.06-.42,2.94,2.94,0,0,0,0,.42V82a.986.986,0,1,1-1.94,0V72.7a1.1,1.1,0,0,1,1-1.17h46.9a1.1,1.1,0,0,1,1,1.17Z" fill="#4f2c28"/><path d="M115.41,97.1h0a1.17,1.17,0,0,0-1.2,1.13,1.15,1.15,0,0,0,1.13,1.19.08.08,0,0,0,.07,0h0a1.161,1.161,0,0,0,.07-2.32Z" fill="#4f2c28"/><path d="M58.24,97.1h0a1.161,1.161,0,1,0-.07,2.32.08.08,0,0,0,.07,0h0a1.161,1.161,0,0,0,.07-2.32Z" fill="#4f2c28"/><path d="M71.5,92.72h0a1.17,1.17,0,0,0,0,2.33h0a1.17,1.17,0,0,0,0-2.33Z" fill="#4f2c28"/><path d="M102.15,86.21h0a1.17,1.17,0,1,0-.07,2.33h.1a1.17,1.17,0,0,0,.07-2.33Z" fill="#4f2c28"/><path d="M86.67,85.63H84.46A1.185,1.185,0,0,0,84.4,88h2.27a1.161,1.161,0,1,0,.07-2.32Z" fill="#4f2c28"/><path d="M78.3,88.94H76.79a1.18,1.18,0,0,0-1.16,1.17,1.16,1.16,0,0,0,1.16,1.16H78.3a1.17,1.17,0,0,0,0-2.33Z" fill="#4f2c28"/><path d="M104.23,92.72h-2.67a1.17,1.17,0,0,0,0,2.33h2.67a1.17,1.17,0,1,0,.07-2.33Z" fill="#4f2c28"/><path d="M95.8,87.84H94.29A1.17,1.17,0,0,0,93.09,89a1.15,1.15,0,0,0,1.13,1.19.09.09,0,0,0,.07,0H95.8a1.161,1.161,0,0,0,.07-2.32Z" fill="#4f2c28"/><path d="M89.29,92.72H87.78a1.17,1.17,0,0,0,0,2.33h1.51a1.17,1.17,0,0,0,0-2.33Z" fill="#4f2c28"/><path d="M88.5,4A84.5,84.5,0,1,1,4,88.5,84.5,84.5,0,0,1,88.5,4m0-4A88.5,88.5,0,1,0,177,88.5,88.5,88.5,0,0,0,88.5,0Z" fill="#4f2c28"/><path d="M34,78.28l3.44,6.98,7.71,1.12-5.58,5.43,1.32,7.67L34,95.86l-6.89,3.62,1.32-7.67-5.57-5.43,7.7-1.12Z" fill="#4f2c28"/><path d="M144.6,78.2l3.44,6.98,7.71,1.12-5.58,5.43,1.32,7.67-6.89-3.62-6.89,3.62,1.32-7.67-5.57-5.43,7.7-1.12Z" fill="#4f2c28"/></g><g transform="matrix(1, 0, 0, 1, 92, 33)" filter="url(#a)"><text transform="translate(404 106)" fill="#4f2c28" font-size="59" font-family="SegoeUI, Segoe UI" letter-spacing="0.078em"><tspan x="0" y="0">CAKE</tspan></text></g><g transform="matrix(1, 0, 0, 1, 92, 33)" filter="url(#c)"><text transform="translate(0 106)" fill="#4f2c28" font-size="59" font-family="SegoeUI, Segoe UI" letter-spacing="0.078em"><tspan x="0" y="0">DRIVE</tspan></text></g></g></svg>