<svg xmlns="http://www.w3.org/2000/svg" width="61.401" height="61.401" viewBox="0 0 61.401 61.401"><path d="M30.7,0c-8.34,0-9.382.038-12.656.184a22.638,22.638,0,0,0-7.453,1.428A15.034,15.034,0,0,0,5.153,5.153a14.98,14.98,0,0,0-3.541,5.439A22.572,22.572,0,0,0,.184,18.044C.031,21.319,0,22.36,0,30.7s.038,9.382.184,12.656A22.652,22.652,0,0,0,1.612,50.81a15.056,15.056,0,0,0,3.541,5.439,15.013,15.013,0,0,0,5.439,3.541,22.666,22.666,0,0,0,7.453,1.428c3.275.153,4.316.184,12.656.184s9.382-.038,12.656-.184a22.718,22.718,0,0,0,7.453-1.428,15.69,15.69,0,0,0,8.98-8.98,22.652,22.652,0,0,0,1.428-7.453c.153-3.275.184-4.316.184-12.656s-.038-9.382-.184-12.656a22.7,22.7,0,0,0-1.428-7.453,15.068,15.068,0,0,0-3.541-5.439A14.958,14.958,0,0,0,50.81,1.612,22.586,22.586,0,0,0,43.357.184C40.082.031,39.041,0,30.7,0Zm0,5.526c8.195,0,9.172.041,12.408.182a16.915,16.915,0,0,1,5.7,1.062,10.1,10.1,0,0,1,5.828,5.825,16.95,16.95,0,0,1,1.057,5.7c.146,3.239.179,4.211.179,12.408s-.038,9.172-.189,12.408a17.277,17.277,0,0,1-1.077,5.7,9.748,9.748,0,0,1-2.3,3.536,9.578,9.578,0,0,1-3.531,2.292,17.075,17.075,0,0,1-5.718,1.057c-3.259.146-4.219.179-12.431.179s-9.174-.038-12.431-.189A17.409,17.409,0,0,1,12.472,54.6a9.507,9.507,0,0,1-3.528-2.3,9.322,9.322,0,0,1-2.3-3.531,17.423,17.423,0,0,1-1.075-5.718c-.115-3.224-.156-4.219-.156-12.393s.041-9.174.156-12.436a17.4,17.4,0,0,1,1.075-5.715,9.1,9.1,0,0,1,2.3-3.533,9.081,9.081,0,0,1,3.528-2.3A16.992,16.992,0,0,1,18.154,5.6c3.262-.115,4.221-.154,12.431-.154l.115.077Zm0,9.41A15.765,15.765,0,1,0,46.465,30.7,15.764,15.764,0,0,0,30.7,14.936Zm0,26A10.234,10.234,0,1,1,40.934,30.7,10.231,10.231,0,0,1,30.7,40.934Zm20.073-26.62a3.684,3.684,0,1,1-3.684-3.682A3.687,3.687,0,0,1,50.774,14.314Z" fill="#4f2c28"/></svg>